<svg xmlns="http://www.w3.org/2000/svg" width="491.907" height="571.65" viewBox="0 0 491.907 571.65"><g transform="translate(-182.961 -224.256)"><path d="M1341.533,1156.05h198.723a4,4,0,0,1,4,4h0v66.062a4,4,0,0,1-4,4H1341.533a4,4,0,0,1-4-4v-66.045a4,4,0,0,1,3.983-4.016Z" transform="translate(-1154.569 -931.794)" fill="#c5befd" fill-rule="evenodd"/><path d="M54,27A27,27,0,0,1,0,27Z" transform="matrix(0.985, 0.174, -0.174, 0.985, 236.404, 230.182)" fill="#fff"/><path d="M0,0C2.052-2.435,5.957-.738,8.207,2.262s4.018,6.157,2.139,7.814S2.94,11.89.69,8.89-2.052,2.435,0,0Z" transform="translate(231.961 233.256)" fill="#fadb93"/><path d="M.324,4.281C1.6,1.774,3.192,1.82,7.258,1.969,9.3.155,14.682.5,17.494,1.969c5.75,3,9.88,7.523,5.506,10.031-1.194.685-5.47-2.118-8.42-2.019C13.319,13.49,5.8,14.5,2.157,12S-.951,6.789.324,4.281Z" transform="translate(261.961 230.256)" fill="#fadb93"/><circle cx="3.5" cy="3.5" r="3.5" transform="translate(243.961 242.256)" fill="#ab8fe2"/><rect width="8" height="8" rx="4" transform="translate(273.961 250.256)" fill="#fadb93"/><rect width="69" height="6" rx="3" transform="translate(302.961 238.256)" fill="#fff"/><rect width="41" height="6" rx="3" transform="translate(302.961 253.256)" fill="#fff"/><rect width="60" height="6" rx="3" transform="translate(302.961 272.256)" fill="#fff"/><path d="M2069.687,1356.681l196.474,29.823a3.993,3.993,0,0,1,3.364,4.536l0,.015-9.912,65.312a4.006,4.006,0,0,1-4.557,3.361l-196.471-29.816a4.01,4.01,0,0,1-3.361-4.561l9.915-65.309a4,4,0,0,1,4.549-3.361Z" transform="translate(-1631.009 -1064.962)" fill="#c5befd" fill-rule="evenodd"/><rect width="166" height="6" rx="3" transform="translate(450.515 311.105) rotate(9)" fill="#fff"/><rect width="85" height="6" rx="3" transform="translate(448.168 325.92) rotate(9)" fill="#fff"/><rect width="60" height="6" rx="3" transform="translate(445.196 344.686) rotate(9)" fill="#fff"/><g transform="translate(503.958 343.258)"><path d="M119,435.82c.21,1.63,1.91,11.13.73,12.91-2.12,3.23-22.5,4.5-23.57,3.67s-1.9-2.73-1.16-3.4,8.6-3.34,9.59-4.24,2-5.1,1.13-7.19" fill="#1f161e"/><path d="M24.27,423.24c.21,1.62,1.9,11.13.73,12.91-2.12,3.22-22.5,4.49-23.57,3.67s-1.9-2.73-1.12-3.41,8.6-3.35,9.59-4.25,2-5.1,1.13-7.18" fill="#1f161e"/><path d="M57.59,174.23c-1.49,4.48-25.77,139.12-27.3,146.42S5.45,419.74,7.47,422.78s16.23,7.1,19.78,5.07,65.42-140,70-157.2,0-107.15,0-107.15Z" fill="#1f161e"/><path d="M76.11,175.23c.94,7.37,15.18,128.88,19.37,148.08s.35,112,3.45,113.45c4,3.3,24.78,3.3,24.78,3.3,3.77-3.3,17.1-255.82,17.1-255.82S107.69,154.5,76.11,175.23Z" fill="#fadb93"/><path d="M88.34,77.27c0,2.6,14.34,2.75,14.33,0V59.85H88.34Z" fill="#f8cdba"/><path d="M102.65,70.21c0-1.55-4.71-8.17-7.44-7.27,3.37-1.2,6.17-4,7.41-3.13Z" fill="#1f161e"/><circle cx="18.61" cy="18.61" r="18.61" transform="translate(70.14 29.5)" fill="#f8cdba"/><ellipse cx="3.09" cy="1.61" rx="3.09" ry="1.61" transform="matrix(0.995, -0.101, 0.101, 0.995, 67.834, 52.72)" fill="#fa9e9f"/><ellipse cx="3.11" cy="1.62" rx="3.11" ry="1.62" transform="translate(87.735 50.711) rotate(-5.93)" fill="#fa9e9f"/><path d="M78.78,49.9c-.5.88-3.1,4.65.17,5.73" fill="none" stroke="#1f161e" stroke-linecap="round" stroke-miterlimit="10" stroke-width="0.69"/><path d="M85.6,59c.92-.12,2.24-1.39,2.89-2.51" fill="none" stroke="#1f161e" stroke-linecap="round" stroke-miterlimit="10" stroke-width="0.69"/><circle cx="4.1" cy="4.1" r="4.1" transform="translate(99.7 41.7)" fill="#f8cdba"/><path d="M101,49.42c0,5.45,6,9,8.06,9a2.25,2.25,0,0,0,2.53-1.93,1.85,1.85,0,0,0,0-.41c0-2.28-1.35-4.24-4.17-6.71.49-.85,4.17-5.34,4.17-11.67,0-6.7-4.11-12.31-6.86-12.31a5.33,5.33,0,0,0-4.88,4.32c0-9.36-10-16.06-16-16.06-5.56,0-6.51,2.42-6.51,4.39,0,4.3,3.39,8.91,4.67,10-3.11-2.29-8-4.6-12.17-4.6-2.64,0-6,.75-6,4.39,0,6.67,6.25,10.53,8.34,11.61a19,19,0,0,1,3-4.27c-.38,1.26,1.16,3.55,4.11,4.07C81,39.61,101,36.91,101,49.42Z" fill="#1f161e"/><path d="M49.47,20.6a88.821,88.821,0,0,1-9.58-3.68C38.5,16.1,44.47,6.05,47.24,3.14s8.49-4.4,11.48-1.8S59.86,10.34,49.47,20.6Z" fill="#f8cdba"/><path d="M131.24,75.54C149.57,86,170.91,148.23,170.91,153s-39,76.19-41.34,76.19c-2-2.13-10.47-12.22-10.47-12.22,2.12-3.25,16-34.51,16.49-35.82-3.38.56-74.64,2.91-80.64.28S51.29,111.2,49.7,109,5.54,103.56.29,95.49c2.16-39.86,36.84-78.1,39.38-79.13S50.45,18.14,50.82,20c-1,2.62-19.78,51.66-18.09,54C41.54,73.09,123.6,71.17,131.24,75.54Z" fill="#ab8fe2"/><path d="M121.75,118.34c1.73,3.08,19.25,32.91,19.06,35.41s-2.51,19.78-5.22,27.35" fill="none" stroke="#1f161e" stroke-linecap="round" stroke-miterlimit="10" stroke-width="0.55"/><path d="M50,109.48a90.81,90.81,0,0,1,.91-17.28" fill="none" stroke="#1f161e" stroke-linecap="round" stroke-miterlimit="10" stroke-width="0.55"/></g></g></svg>