<svg xmlns="http://www.w3.org/2000/svg" width="2311.384" height="1817.356" viewBox="0 0 2311.384 1817.356"><g transform="translate(391 -1171)"><path d="M331,0c85.37,0,135.876,26.09,191.994,84.783,64.321,67.273,128.424,173.482,128.424,269.888C651.418,535.545,513.806,655,331,655S0,508.373,0,327.5,148.194,0,331,0Z" transform="translate(-391 1171)" fill="#fff3f3"/><path d="M218.163,0c56.268,0,89.556,17.2,126.544,55.881,42.394,44.34,84.644,114.343,84.644,177.884,0,119.214-90.7,197.947-211.188,197.947S0,335.07,0,215.856,97.675,0,218.163,0Z" transform="translate(1491.033 2556.644)" fill="#fff3f3"/></g></svg>