<svg xmlns="http://www.w3.org/2000/svg" width="2312.769" height="3527.148" viewBox="0 0 2312.769 3527.148"><g transform="translate(57.351 220.792)"><path d="M548.378,1004.058c227.326,0,669.387-479.48,555.724-694.228C1031.7,173.037,622.117,4.679,353.511,14.476,200.408,20.06-46.51,251.138,2.207,498.534S321.052,1004.058,548.378,1004.058Z" transform="matrix(-0.485, 0.875, -0.875, -0.485, 2053.895, 269.529)" fill="#ffe8e8" opacity="0.527"/><path d="M331,0c85.37,0,135.876,26.09,191.994,84.783,64.321,67.273,128.424,173.482,128.424,269.888C651.418,535.545,513.806,655,331,655S0,508.373,0,327.5,148.194,0,331,0Z" transform="translate(1604 1509)" fill="#fff3f3"/><path d="M218.163,0c56.268,0,89.556,17.2,126.544,55.881,42.394,44.34,84.644,114.343,84.644,177.884,0,119.214-90.7,197.947-211.188,197.947S0,335.07,0,215.856,97.675,0,218.163,0Z" transform="translate(-57.351 2874.644)" fill="#fff3f3"/><path d="M258.823,457.968c108.174,0,318.529-214.993,264.442-311.284C488.812,85.348,293.912,9.858,166.1,14.251,93.241,16.755-24.256,120.367-1.074,231.3S150.649,457.968,258.823,457.968Z" transform="translate(1885.025 1018.316) rotate(-138)" fill="#ffe8e8" opacity="0.527"/></g></svg>