<svg xmlns="http://www.w3.org/2000/svg" width="445.979" height="418.1" viewBox="0 0 445.979 418.1"><g transform="translate(593.455 -33.208)"><path d="M157.635,282.492c64.867,0,191.008-136.819,158.575-198.1C295.549,45.362,178.676-2.679,102.03.117,58.342,1.71-12.115,67.648,1.786,138.242S92.768,282.492,157.635,282.492Z" transform="matrix(-0.485, 0.875, -0.875, -0.485, -190.54, 170.163)" fill="#ffe8e8" opacity="0.527"/><path d="M75.011,126.666c30.867,0,90.892-61.348,75.458-88.824C140.638,20.34,85.023-1.2,48.551.052,27.762.767-5.765,30.332.85,61.986S44.144,126.666,75.011,126.666Z" transform="translate(-232.232 384.576) rotate(-138)" fill="#ffe8e8" opacity="0.527"/></g></svg>