<svg xmlns="http://www.w3.org/2000/svg" width="13.891" height="13.891" viewBox="0 0 13.891 13.891"><path d="M8.112,8.654a1.776,1.776,0,0,1,.208-.6,1.215,1.215,0,0,1,.41-.431,1.233,1.233,0,0,1,.632-.16,1.259,1.259,0,0,1,.438.09,1.12,1.12,0,0,1,.361.25,1.337,1.337,0,0,1,.236.368,1.216,1.216,0,0,1,.1.444h1.243a2.486,2.486,0,0,0-.194-.9,2.084,2.084,0,0,0-.486-.7,2.268,2.268,0,0,0-.75-.458,2.683,2.683,0,0,0-.965-.16,2.714,2.714,0,0,0-1.181.236,2.388,2.388,0,0,0-.833.639,2.611,2.611,0,0,0-.493.945,4.068,4.068,0,0,0-.167,1.139v.188a4.066,4.066,0,0,0,.16,1.139,2.525,2.525,0,0,0,.493.938,2.371,2.371,0,0,0,.833.632,2.818,2.818,0,0,0,1.181.236,2.649,2.649,0,0,0,.917-.16A2.369,2.369,0,0,0,11,11.89a2.12,2.12,0,0,0,.514-.653,1.869,1.869,0,0,0,.208-.8H10.48a.989.989,0,0,1-.1.4,1.022,1.022,0,0,1-.25.319,1.094,1.094,0,0,1-.361.208,1.379,1.379,0,0,1-.417.069,1.18,1.18,0,0,1-.618-.16,1.215,1.215,0,0,1-.41-.431,1.815,1.815,0,0,1-.208-.611,4.681,4.681,0,0,1-.056-.695V9.355A4.627,4.627,0,0,1,8.112,8.654ZM9.445,2.5a6.945,6.945,0,1,0,6.945,6.945A6.948,6.948,0,0,0,9.445,2.5Zm0,12.5A5.556,5.556,0,1,1,15,9.445,5.564,5.564,0,0,1,9.445,15Z" transform="translate(-2.5 -2.5)"/></svg>