<svg xmlns="http://www.w3.org/2000/svg" width="2311.384" height="1817.356" viewBox="0 0 2311.384 1817.356"><path d="M331,655c85.37,0,135.876-26.09,191.994-84.783,64.321-67.273,128.424-173.482,128.424-269.888C651.418,119.455,513.806,0,331,0S0,146.627,0,327.5,148.194,655,331,655Z" transform="translate(0 1162.356)" fill="#fff3f3"/><path d="M218.163,431.712c56.268,0,89.556-17.2,126.544-55.881,42.394-44.34,84.644-114.343,84.644-177.884C429.351,78.733,338.651,0,218.163,0S0,96.642,0,215.856,97.675,431.712,218.163,431.712Z" transform="translate(1882.033)" fill="#fff3f3"/></svg>